<?xml version="1.0" encoding="utf-8"?>
<!-- Generator: Adobe Illustrator 27.9.0, SVG Export Plug-In . SVG Version: 6.00 Build 0)  -->
<svg version="1.1" id="Layer_1" xmlns="http://www.w3.org/2000/svg" xmlns:xlink="http://www.w3.org/1999/xlink" x="0px" y="0px"
	 viewBox="0 0 33 32" style="enable-background:new 0 0 33 32;" xml:space="preserve">
<style type="text/css">
	.st0{fill:#663707;}
	.st1{fill:#AF7A49;}
</style>
<g id="PA2wLU_00000170275201691580388850000007639284241503164829_">
	<g>
		<path class="st0" d="M1.7,17.8C2.1,17,2.5,16.2,3,15.4c1.3-2,2.9-3.5,5.3-4.2C8.8,11,9.4,10.9,9.9,11c0.6,0,0.9,0.3,1.1,0.9
			c0.8,3.3,0.1,6.3-1.9,8.9c-0.7,0.9-1.4,1.8-2.1,2.7c-1.2,1.6-2,3.4-1.9,5.5c-0.8-0.5-1.4-1.1-1.9-1.8c-1.6-2.1-2.4-4.5-2.6-7.2
			c-0.2-2.7,0.3-5.3,1.6-7.6C3.1,10.8,4.3,9.5,6,8.6C6.6,8.3,7.3,8,7.9,8C8.8,8,9.8,8.8,10,9.6c0.1,0.3-0.1,0.6-0.4,0.7
			c-3.7,0.5-5.8,2.9-7.4,5.9C2,16.7,1.8,17.3,1.7,17.8z"/>
		<path class="st1" d="M10.2,8.8c1.5,0.1,2.7,0.7,3.7,1.5c2.2,1.8,3.4,4.2,3.9,6.9c0.6,3.2,0.3,6.2-1.2,9.1c-1,1.9-2.4,3.5-4.5,4.4
			c-1.3,0.5-2.6,0.6-4,0.3c-0.2,0-0.4-0.1-0.6-0.3c4.3-0.4,7.2-4.3,8.1-7.2c-0.1,0.3-0.3,0.5-0.4,0.8c-1.1,2.1-2.7,3.9-4.9,5
			C9.6,29.7,8.8,29.9,8,30c-1,0.1-1.7-0.6-1.4-1.6c0.3-1.2,1-2.2,1.8-3.2c0.9-1.1,1.9-2.2,2.8-3.4c2.5-3.4,2.7-7.7,0.5-11.2
			C11.2,10,10.7,9.5,10.2,8.8z"/>
		<path class="st1" d="M22.1,14.6c1.7,0.6,3.3,1.5,4.7,2.7c1.5,1.4,2.5,3.1,2.8,5.1c0.1,1-0.1,1.4-1.1,1.6c-3.2,0.8-6,0-8.6-1.9
			c-0.8-0.5-1.1-1.1-1.1-2.1c0.1-2-0.3-3.9-1-5.7c-0.1-0.3,0-0.4,0.3-0.4c3.8-0.8,7.5-0.5,10.9,1.7c1.7,1.1,2.9,2.6,3.5,4.5
			c0.4,1.3-0.3,2.4-1.5,2.9c-0.3,0.2-0.6,0-0.7-0.5c-0.2-1.2-0.5-2.2-1.1-3.2c-1.1-1.8-2.8-3.1-4.7-4C23.7,15.1,22.9,14.8,22.1,14.6
			z"/>
		<path class="st0" d="M14.8,29.9c0.5-0.5,0.9-0.9,1.3-1.4c0.1-0.1,0.2,0,0.3,0c0.3,0.1,0.5,0.2,0.8,0.2c-0.2-0.1-0.5-0.2-0.7-0.3
			c-0.2-0.1-0.2-0.2-0.1-0.3c0.6-0.9,1.1-1.9,1.5-2.9c0.1-0.3,0.2-0.5,0.3-0.8c0.1-0.5,0.3-0.2,0.5-0.1c0.7,0.5,1.4,0.9,2.2,1.3
			c3.7,1.6,7.8,0.8,10.6-2c0,0,0.1-0.1,0.2-0.2c-0.1,0.9-0.3,1.7-0.7,2.4c-1.1,2-2.7,3.4-4.8,4.3c-3.7,1.6-7.4,1.6-11.1,0.1
			C15,30,14.9,30,14.8,29.9z"/>
		<path class="st0" d="M16.5,0.8c0.5,0.1,0.7,0.4,1,0.7c1.1,1.3,1.3,2.8,0.6,4.4c-0.1,0.3-0.3,0.7-0.5,1.1c-0.5,1.1-0.5,2.3,0,3.4
			c0,0.1,0.1,0.3,0.2,0.4c-0.5-0.1-1.2-0.7-1.5-1.4c-0.5-1.2-0.4-2.4,0.1-3.5c0.4-0.8,0.7-1.7,0.7-2.7C17,2.4,16.8,1.6,16.5,0.8z"/>
		<path class="st0" d="M19.7,3.2c1.1,0.5,1.8,1.9,1.6,3.2c-0.1,0.5-0.3,0.9-0.5,1.4c-0.7,1.4-0.7,2-0.2,3.4c-0.4,0-0.9-0.5-1.2-1
			C19,9.4,19,8.6,19.3,7.7c0.2-0.5,0.4-0.9,0.5-1.4c0.3-0.9,0.2-1.9-0.1-2.7C19.8,3.5,19.7,3.4,19.7,3.2z"/>
		<path class="st0" d="M23.4,12c-0.9-0.3-1.4-1.2-1.2-2.1c0-0.3,0.2-0.5,0.3-0.7c0.3-0.7,0.4-1.3,0.3-2.1c0-0.1-0.1-0.2,0-0.3
			s0.2,0,0.3,0.1c0.8,0.4,1.1,1.5,0.8,2.5c0,0.2-0.1,0.3-0.2,0.5C23.2,10.8,23.2,11.1,23.4,12z"/>
	</g>
</g>
</svg>
