<?xml version="1.0" encoding="utf-8"?>
<!-- Generator: Adobe Illustrator 27.9.0, SVG Export Plug-In . SVG Version: 6.00 Build 0)  -->
<svg version="1.1" id="Layer_1" xmlns="http://www.w3.org/2000/svg" xmlns:xlink="http://www.w3.org/1999/xlink" x="0px" y="0px"
	 viewBox="0 0 461.4 89.6" style="enable-background:new 0 0 461.4 89.6;" xml:space="preserve">
<style type="text/css">
	.st0{fill:#663707;}
	.st1{fill:#AF7A49;}
	.st2{font-family:'Poppins-SemiBold';}
	.st3{font-size:46.9408px;}
	.st4{fill:#FFFFFF;}
</style>
<g id="PA2wLU_00000170275201691580388850000007639284241503164829_">
	<g>
		<path class="st0" d="M15,47.2c0.9-1.9,1.8-3.9,3-5.7c3.1-4.7,7-8.3,12.6-10c1.3-0.4,2.6-0.6,3.9-0.5c1.5,0.1,2.2,0.6,2.5,2.1
			c2,7.9,0.3,14.9-4.6,21.2c-1.6,2.1-3.3,4.2-4.9,6.4c-2.9,3.9-4.7,8.1-4.5,13.1c-1.8-1.2-3.3-2.6-4.6-4.3c-3.9-5-5.8-10.8-6.2-17
			C11.8,46.1,13,40,16.1,34.4c2.2-3.9,5.1-7,9.1-9.1c1.5-0.7,3-1.3,4.6-1.3c2.1,0,4.4,1.8,5,3.8c0.2,0.7-0.2,1.4-1,1.6
			c-8.7,1.2-13.8,6.8-17.5,14.1C15.7,44.7,15.2,45.9,15,47.2z"/>
		<path class="st1" d="M35.1,25.9c3.5,0.3,6.4,1.6,8.9,3.6c5.2,4.2,8,9.9,9.2,16.3c1.4,7.5,0.6,14.7-2.9,21.6
			c-2.4,4.6-5.8,8.4-10.7,10.4c-3,1.2-6.2,1.4-9.4,0.7c-0.5-0.1-1-0.3-1.4-0.7c10.3-1,17.1-10.2,19.2-17c-0.3,0.6-0.6,1.3-0.9,1.9
			c-2.7,5.1-6.3,9.3-11.6,11.9c-1.8,0.8-3.6,1.3-5.6,1.6c-2.4,0.3-4-1.4-3.4-3.7c0.7-2.9,2.4-5.3,4.2-7.5c2.2-2.7,4.6-5.3,6.7-8.1
			c5.9-8,6.4-18.3,1.1-26.6C37.7,28.7,36.5,27.4,35.1,25.9z"/>
		<path class="st1" d="M63.6,39.6c4.1,1.5,7.9,3.5,11.1,6.5c3.6,3.3,6,7.3,6.6,12.2c0.3,2.3-0.3,3.4-2.6,3.9
			c-7.6,1.8-14.3,0-20.5-4.5c-1.8-1.3-2.7-2.5-2.5-4.9c0.3-4.7-0.6-9.2-2.4-13.6c-0.3-0.7,0-0.9,0.6-1c9.1-2,17.8-1.1,25.8,4.1
			c4,2.6,7,6.1,8.3,10.8c0.9,3.1-0.7,5.6-3.5,6.8c-0.8,0.4-1.5-0.1-1.6-1.1c-0.4-2.8-1.2-5.3-2.7-7.7c-2.7-4.3-6.6-7.4-11.1-9.6
			C67.3,40.7,65.5,40.1,63.6,39.6z"/>
		<path class="st0" d="M46.1,76c1.1-1.1,2.2-2.2,3.1-3.4c0.3-0.3,0.5-0.1,0.8,0c0.6,0.2,1.2,0.5,1.8,0.5c-0.5-0.3-1.1-0.5-1.6-0.8
			c-0.4-0.2-0.5-0.4-0.2-0.8c1.4-2.2,2.7-4.4,3.6-6.9c0.2-0.7,0.5-1.3,0.6-2c0.2-1.1,0.7-0.5,1.1-0.2c1.6,1.2,3.4,2.2,5.2,3
			c8.8,3.8,18.5,1.9,25.3-4.7c0.1-0.1,0.3-0.3,0.5-0.5c-0.2,2.1-0.7,4-1.6,5.7c-2.5,4.8-6.5,8.1-11.3,10.2
			c-8.8,3.7-17.6,3.8-26.5,0.2C46.7,76.3,46.5,76.2,46.1,76z"/>
		<path class="st0" d="M50.2,6.9c1.1,0.3,1.7,0.9,2.3,1.6c2.6,3.1,3,6.6,1.5,10.4c-0.3,0.8-0.7,1.7-1.1,2.5c-1.3,2.7-1.2,5.4,0,8.1
			c0.1,0.3,0.3,0.6,0.4,1c-1.3-0.3-2.8-1.7-3.6-3.4c-1.3-2.8-1-5.6,0.3-8.3c0.9-2,1.7-4.1,1.6-6.4C51.4,10.6,51,8.8,50.2,6.9z"/>
		<path class="st0" d="M57.8,12.6c2.7,1.2,4.3,4.5,3.9,7.6c-0.2,1.2-0.6,2.2-1.1,3.3c-1.6,3.3-1.6,4.7-0.4,8.2
			c-1-0.1-2.2-1.1-2.9-2.4c-1.1-2-1.1-4-0.4-6.1c0.4-1.1,0.9-2.2,1.3-3.3c0.7-2.2,0.5-4.4-0.2-6.5C58,13.1,57.9,12.9,57.8,12.6z"/>
		<path class="st0" d="M66.6,33.5c-2.1-0.6-3.3-2.8-2.8-5.1c0.1-0.6,0.4-1.2,0.6-1.7c0.7-1.6,1-3.2,0.7-4.9c0-0.2-0.2-0.5,0-0.6
			c0.2-0.1,0.4,0.1,0.6,0.2c1.8,1,2.7,3.6,1.9,5.9c-0.1,0.4-0.3,0.8-0.5,1.3C66.2,30.6,66.1,31.2,66.6,33.5z"/>
	</g>
</g>
<text transform="matrix(1 0 0 1 99.749 70.4261)"><tspan x="0" y="0" class="st0 st2 st3">Bean</tspan><tspan x="122" y="0" class="st4 st2 st3">Ensemble</tspan></text>
</svg>
