<?xml version="1.0" encoding="utf-8"?>
<!-- Generator: Adobe Illustrator 27.9.0, SVG Export Plug-In . SVG Version: 6.00 Build 0)  -->
<svg version="1.1" id="Layer_1" xmlns="http://www.w3.org/2000/svg" xmlns:xlink="http://www.w3.org/1999/xlink" x="0px" y="0px"
	 viewBox="0 0 33 32" style="enable-background:new 0 0 33 32;" xml:space="preserve">
<style type="text/css">
	.st0{fill:#AF7A49;}
</style>
<g>
	<path class="st0" d="M29.4,13.6c-0.4,0.5-0.8,0.9-1.2,1.4c-0.9,1-0.8,2.1-0.6,3.3c0.3,1.4,0.2,1.7-1.2,2.1
		c-1.5,0.4-2.4,1.4-2.8,2.9c-0.4,1.4-0.6,1.5-2.1,1.2c-1.5-0.3-2.7,0-3.8,1c-1.1,1.1-1.3,1.1-2.4,0c-1.1-1.1-2.4-1.4-3.9-1
		c-1.3,0.3-1.6,0.2-1.9-1.1c-0.5-1.6-1.4-2.5-2.9-3c-1.3-0.4-1.4-0.6-1.1-2c0.4-1.5,0.1-2.8-1-4c-1-1-1-1.3,0-2.3
		c1.1-1.2,1.4-2.5,1-4.1c-0.3-1.2-0.2-1.5,1-1.8C8.1,5.7,9.1,4.7,9.5,3c0.2-0.8,0.7-1.3,1.5-1c2.2,0.7,3.7-0.2,5.1-1.7
		c0.2,0,0.5,0,0.7,0c1.3,1.3,2.6,2.4,4.7,1.8c1.4-0.4,1.6-0.2,2.1,1.2c0.4,1.5,1.3,2.4,2.8,2.8c1.4,0.4,1.5,0.6,1.2,2.1
		c-0.3,1.5-0.1,2.7,1,3.8c0.3,0.3,0.5,0.6,0.8,0.9C29.4,13.1,29.4,13.3,29.4,13.6z M16.5,4c-5.1,0-9.2,4.1-9.2,9.2
		c0,5.1,4.1,9.3,9.1,9.3c5.1,0,9.3-4.2,9.3-9.3C25.7,8.1,21.6,4,16.5,4z"/>
	<path class="st0" d="M20.7,31.8c-0.5-1.7-1.1-3.3-1.6-5c-0.2-0.8,0.4-0.9,1-1c0.4-0.1,0.8,0,1.3,0.1c2.1,0.4,2.9,0,3.6-2.1
		c0.1-0.2,0.1-0.4,0.3-0.7c0.1,0.3,0.2,0.5,0.3,0.7c0.7,2.3,1.5,4.6,2.2,6.9c0.1,0.3,0,0.7,0,1C25.4,31.8,23.1,31.8,20.7,31.8z"/>
	<path class="st0" d="M5.3,31.8c-0.1-0.2-0.2-0.4-0.1-0.5C6,28.5,6.8,25.9,7.7,23c0.2,0.5,0.3,0.8,0.5,1.2c0.6,1.6,1.5,2.1,3.2,1.8
		c2.8-0.5,2.9-0.3,2.1,2.4c-0.4,1.1-0.8,2.3-1.1,3.4C9.9,31.8,7.6,31.8,5.3,31.8z"/>
	<path class="st0" d="M24.2,13.2c0,4.3-3.5,7.8-7.7,7.8c-4.3,0-7.7-3.5-7.7-7.8c0-4.3,3.5-7.8,7.7-7.8C20.8,5.4,24.2,8.9,24.2,13.2z
		 M13.9,14.3c-0.2,0.9-0.4,1.7-0.6,2.5c0,0.2,0,0.5,0,0.7c0.2,0,0.5,0,0.7-0.1c1.7-1.3,3.3-1.3,5,0c0.1,0.1,0.5,0.2,0.6,0.1
		c0.1-0.2,0.2-0.5,0.1-0.6c-0.8-1.9-0.5-3.5,1.3-4.7c0.5-0.3,0.4-0.9-0.2-0.8c-2.1,0.1-3.3-0.9-3.8-2.9c0-0.2-0.3-0.5-0.4-0.4
		c-0.2,0.1-0.4,0.3-0.5,0.4c-0.5,2-1.7,2.9-3.8,2.9c-0.5,0-0.7,0.4-0.3,0.8c0.5,0.5,1,1.1,1.5,1.6C13.7,14,13.8,14.2,13.9,14.3z"/>
</g>
</svg>
