<?xml version="1.0" encoding="utf-8"?>
<!-- Generator: Adobe Illustrator 27.9.0, SVG Export Plug-In . SVG Version: 6.00 Build 0)  -->
<svg version="1.1" id="Layer_1" xmlns="http://www.w3.org/2000/svg" xmlns:xlink="http://www.w3.org/1999/xlink" x="0px" y="0px"
	 viewBox="0 0 28 32" style="enable-background:new 0 0 28 32;" xml:space="preserve">
<style type="text/css">
	.st0{fill-rule:evenodd;clip-rule:evenodd;fill:#AF7A49;}
	.st1{fill:#AF7A49;}
</style>
<path class="st0" d="M41.7,31.9c0.2,0.1,0.4,0.1,0.6,0.1c0.2,0,0.4-0.1,0.6-0.1l5.7-3.1c1.6-0.9,2.9-1.8,3.9-3
	c2.2-2.4,3.3-5.6,3.3-8.8L55.7,6.4c0-1.2-0.8-2.3-2-2.7L43.1,0.2c-0.6-0.2-1.3-0.2-2,0L30.5,3.9c-1.2,0.4-2,1.5-2,2.7l0.1,10.6
	c0,3.2,1.2,6.3,3.4,8.8c1,1.1,2.3,2.1,3.9,2.9L41.7,31.9z M40.2,19.4c0.2,0.2,0.5,0.3,0.9,0.3c0.3,0,0.6-0.1,0.9-0.3l6.2-6.2
	c0.5-0.5,0.5-1.2,0-1.7c-0.5-0.5-1.2-0.5-1.7,0l-5.4,5.3l-2.2-2.1c-0.5-0.5-1.2-0.5-1.7,0c-0.5,0.5-0.5,1.2,0,1.7L40.2,19.4z"/>
<path d="M42.7,12.7c0.3-0.4,0.6-0.5,1-0.2c1.9,1.8,4.2,2.8,6.6,3.5c2,0.6,3.8,1.6,5.1,3.2c1.3,1.7,2.1,3.5,1.8,5.7
	c0,0.2-0.1,0.5-0.2,0.7c-0.4,0.6-0.1,1,0.3,1.4c0.5-1,1-2,1.5-3c0.1-0.2,0.1-0.5,0-0.7c-0.5-1.2-0.4-2.3,0.1-3.5
	c0.9-2.3,2.4-3.9,4.7-4.7c2.3-0.8,4.6-1.6,6.5-3.3c0.4-0.4,0.8-0.2,0.8,0.4c0,3.3,0,6.7-1.7,9.6c-1.4,2.5-3.6,4-6.6,3.8
	c-1-0.1-2-0.6-3.1-1c-0.8,1.5-1.8,3-1.1,5.1c0.2,0.6,0.3,1.3,0.4,2c0,0.2-0.2,0.5-0.3,0.7c-0.2-0.2-0.5-0.3-0.6-0.6
	c-0.5-1.4-0.9-2.7-1.4-4.1c-0.1-0.2-0.3-0.5-0.4-0.5c-1.2,0.4-2.2,1.1-3.3,1.2c-3.3,0.5-6.9-1.7-8.4-5.1c-1-2.2-1.3-4.6-1.5-7.1
	c0-0.5-0.1-0.9-0.2-1.4C42.7,14.2,42.7,13.5,42.7,12.7z M56,25.5c0-0.7,0.2-1.4,0.1-2c-0.5-3.2-2.4-5.2-5.4-6.2
	c-2.4-0.8-4.8-1.7-6.9-3.2c0,0-0.1,0-0.2,0c0.1,2.8,0.3,5.7,1.3,8.3c0.9,2.4,2.5,4,4.9,4.8c1.9,0.7,3.7,0.4,5.4-1.1
	c-0.8-0.3-1.4-0.6-2.1-0.8c-3-0.8-5.1-2.5-6.1-5.5c-0.1-0.3,0-0.7,0.1-1c0.3,0.2,0.6,0.3,0.8,0.6c0.5,0.8,0.9,1.8,1.5,2.6
	c0.7,1,1.8,1.6,3.1,2c-0.1-0.3-0.2-0.4-0.2-0.6c-0.1-0.7-0.2-1.5-0.3-2.2c0-0.2,0.4-0.3,0.6-0.5c0.1,0.2,0.3,0.5,0.3,0.7
	c0.1,0.4,0,0.9,0.1,1.3C53.4,24.3,54.5,25,56,25.5z M60.4,23.6c0,0.1,0,0.3,0,0.4c0.8,0.3,1.5,0.7,2.3,0.7c2.4,0.2,4.1-1,5.4-2.8
	c1.7-2.5,1.7-5.5,1.8-8.2c-2.1,0.9-4.2,1.7-6.3,2.6c-2,0.8-3.3,2.2-3.9,4.3c-0.2,0.7-0.1,1.5-0.2,2.4c1.9-0.9,2.6-1.9,2.6-3.2
	c0-0.3,0.2-0.6,0.4-0.8c0.2,0.2,0.6,0.5,0.6,0.7c0,0.6-0.1,1.3-0.2,2c0.1,0,0.3-0.1,0.4-0.2c1.5-0.7,2.4-1.8,3-3.3
	c0.2-0.4,0.2-1.1,0.9-0.8c0.7,0.3,0.1,0.8,0,1.2c-0.8,2.3-2.5,3.6-4.8,4.3C61.6,23.1,61,23.4,60.4,23.6z"/>
<g>
	<path class="st1" d="M27.6,7.8c-0.2,1.4-0.3,2.9-0.6,4.3c-0.3,1.3-0.6,2.6-1.1,3.8c-1.4,3.4-4,4.6-7.5,3.6
		c-0.7-0.2-1.3-0.5-2.1-0.8c-1.1,1.4-2.1,3.1-2.7,4.9c-0.4,1.5-0.6,3-0.9,4.6c-0.1,0.7-0.4,1.2-1,1.2c-0.6,0-0.9-0.5-0.9-1.2
		c0.1-0.9,0.3-1.8,0.3-2.8c0-0.4,0-1-0.2-1.3c-0.9-1.3-1.8-2.5-2.7-3.8C8.2,19.9,8,19.9,7.6,20c-0.5,0.2-1,0.3-1.5,0.4
		c-2.1,0.4-3.7-0.5-4.6-2.4c-0.8-1.8-1.1-3.7-1.2-5.6c-0.1-1.1,0-2.2,0-3.4c0-0.3,0.2-0.8,0.5-0.9C1.1,8,1.6,8.2,1.8,8.4
		c1.3,1.3,3,2.2,4.6,3c1.1,0.5,2.1,1.1,3.1,1.8c1.5,1.1,1.9,3,1.2,4.3c0,0.1-0.1,0.2-0.2,0.2c-0.8-0.6-1.6-1.3-2.5-1.9
		c-0.9-0.5-1.8-1-2.8-1.3c2.8,2.2,5.1,4.8,7.1,7.7c1.9-4.5,5-7.9,9-10.5c-2.8,1-5.2,2.6-7.3,4.7c-1.1-0.9-1.4-2.8-0.9-4.4
		c0.4-1.2,1.2-2.1,2.3-2.7c1.2-0.7,2.5-1.4,3.8-2c2.4-1.2,4.8-2.4,6.8-4.3c0.7-0.6,1.2-0.4,1.8,0.5C27.6,5,27.6,6.4,27.6,7.8z"/>
	<path class="st1" d="M15.2,2.7c0.1,0.9,0.7,1.5,1.5,1.9c0.2,0.1,0.3,0.2,0.5,0.4C17,5,16.9,5.2,16.7,5.2C16,5.5,15.5,6,15.2,6.8
		c0,0.1-0.2,0.2-0.3,0.3c-0.1-0.1-0.3-0.2-0.3-0.3c-0.3-0.8-0.8-1.3-1.6-1.6c-0.1-0.1-0.2-0.2-0.4-0.3c0.1-0.1,0.2-0.3,0.3-0.3
		c1-0.3,1.4-1,1.7-1.9C14.9,2.7,15,2.7,15.2,2.7z"/>
	<path class="st1" d="M10.3,11.3c-0.2-0.2-0.3-0.3-0.4-0.5c-0.3-1-1-1.6-1.9-2C7.8,8.8,7.7,8.7,7.6,8.5C7.7,8.4,7.8,8.2,8,8.2
		c1-0.3,1.6-1,1.9-1.9C10,6.1,10.2,6,10.3,5.9c0.1,0.1,0.3,0.2,0.3,0.3c0.3,1,1,1.7,2,2c0.1,0,0.2,0.2,0.4,0.4
		c-0.1,0.1-0.2,0.3-0.4,0.3c-1,0.3-1.7,1-2,2C10.6,11,10.4,11.1,10.3,11.3z"/>
	<path class="st1" d="M5.4,4c0.3,1.1,1,1.8,2.1,2.1c-1,0.5-1.8,1.1-2.1,2.3C5.2,8.2,5,8.1,5,8C4.7,7.3,4.2,6.8,3.5,6.5
		C3.4,6.5,3.3,6.3,3.2,6.2C3.3,6.1,3.4,6,3.5,5.9C4.2,5.7,4.8,5.1,5,4.3c0-0.1,0.1-0.1,0.1-0.2C5.2,4.1,5.2,4.1,5.4,4z"/>
</g>
</svg>
