<?xml version="1.0" encoding="utf-8"?>
<!-- Generator: Adobe Illustrator 27.9.0, SVG Export Plug-In . SVG Version: 6.00 Build 0)  -->
<svg version="1.1" id="Layer_1" xmlns="http://www.w3.org/2000/svg" xmlns:xlink="http://www.w3.org/1999/xlink" x="0px" y="0px"
	 viewBox="0 0 33 32" style="enable-background:new 0 0 33 32;" xml:space="preserve">
<style type="text/css">
	.st0{fill:#AF7A49;}
</style>
<g>
	<path class="st0" d="M7.9,3.3c0-0.1,0-0.2,0-0.3c0-0.6,0-1.2,0-1.8c0-0.6,0.4-1.1,1-1.1c0.6-0.1,1.1,0.3,1.3,0.8c0,0.1,0,0.3,0,0.4
		c0,0.6,0,1.2,0,1.7c0,0.1,0,0.2,0,0.3c4.2,0,8.4,0,12.6,0c0-0.1,0-0.2,0-0.3c0-0.6,0-1.2,0-1.7c0-0.2,0-0.4,0.1-0.5
		c0.2-0.5,0.7-0.8,1.3-0.7c0.5,0.1,0.9,0.5,1,1.1c0,0.6,0,1.2,0,1.8c0,0.1,0,0.2,0,0.4c0.1,0,0.2,0,0.3,0c1.3,0,2.5,0,3.8,0
		c0.9,0,1.8,0.6,2,1.5c0.1,0.2,0.1,0.3,0.1,0.5c0,0.1,0,0.3,0,0.4c0,8,0,16,0,24c0,0.2,0,0.5,0,0.7c-0.2,1-1,1.7-2,1.7
		c-0.1,0-0.1,0-0.2,0c-8.4,0-16.9,0-25.3,0c-0.3,0-0.5,0-0.7-0.1c-0.9-0.2-1.5-1-1.6-2c0-0.1,0-0.1,0-0.2c0-8.1,0-16.1,0-24.2
		c0-0.5,0.1-1,0.5-1.4c0.4-0.5,1-0.8,1.7-0.8c1.3,0,2.5,0,3.8,0C7.6,3.3,7.7,3.3,7.9,3.3z M3.4,11.9c0,0.1,0,0.2,0,0.3
		c0,5.7,0,11.3,0,17c0,0.1,0,0.2,0,0.3c0,0.3,0.2,0.6,0.6,0.7c0.1,0,0.3,0,0.4,0c8.1,0,16.3,0,24.4,0c0.1,0,0.1,0,0.2,0
		c0.4,0,0.7-0.3,0.8-0.7c0-0.1,0-0.2,0-0.3c0-5.7,0-11.3,0-17c0-0.1,0-0.2,0-0.3C20.9,11.9,12.1,11.9,3.4,11.9z M7.9,5.1
		c-0.6,0.4-0.8,1.3-0.5,2c0.3,0.7,1.1,1.2,1.9,1.1c0.8-0.1,1.4-0.7,1.6-1.5c0.1-0.6-0.2-1.5-0.6-1.6c0,0.1,0,0.2,0,0.3
		c0,0.3,0,0.7,0,1c0,0.5-0.4,1-1,1.1C8.6,7.6,8.1,7.3,7.9,6.8c0-0.1-0.1-0.3-0.1-0.4C7.8,5.9,7.9,5.6,7.9,5.1z M25.2,5.1
		c0,0.1,0,0.2,0,0.3c0,0.3,0,0.6,0,0.9c0,0.3-0.1,0.5-0.2,0.7c-0.3,0.4-0.8,0.6-1.3,0.4c-0.5-0.1-0.8-0.6-0.8-1.1c0-0.3,0-0.6,0-1
		c0-0.1,0-0.2,0-0.3C22.4,5.4,22,6.3,22.3,7c0.2,0.7,0.9,1.3,1.7,1.3c0.8,0,1.5-0.5,1.8-1.2C25.9,6.4,25.7,5.6,25.2,5.1z"/>
	<path class="st0" d="M20.9,21c0,0.4,0,0.7,0,1.1c0,0.4-0.2,0.6-0.6,0.6c-0.7,0-1.5,0-2.2,0c-0.4,0-0.6-0.2-0.6-0.6
		c0-0.7,0-1.4,0-2.2c0-0.4,0.2-0.6,0.6-0.6c0.7,0,1.5,0,2.2,0c0.4,0,0.6,0.2,0.6,0.6c0,0,0,0,0,0C20.9,20.3,20.9,20.7,20.9,21z"/>
	<path class="st0" d="M10.2,21c0,0.4,0,0.7,0,1.1c0,0.5-0.2,0.7-0.7,0.7c-0.7,0-1.4,0-2.1,0c-0.5,0-0.7-0.2-0.7-0.7
		c0-0.7,0-1.4,0-2.1c0-0.5,0.2-0.7,0.7-0.7c0.7,0,1.4,0,2.1,0c0.5,0,0.7,0.2,0.7,0.7C10.2,20.3,10.2,20.7,10.2,21z"/>
	<path class="st0" d="M12.1,21c0-0.4,0-0.7,0-1.1c0-0.4,0.2-0.6,0.6-0.6c0.7,0,1.5,0,2.2,0c0.4,0,0.6,0.2,0.6,0.6c0,0.7,0,1.5,0,2.2
		c0,0.4-0.2,0.6-0.6,0.6c-0.7,0-1.5,0-2.2,0c-0.4,0-0.6-0.2-0.6-0.6C12.1,21.8,12.1,21.4,12.1,21z"/>
	<path class="st0" d="M8.5,24.6c0.4,0,0.7,0,1.1,0c0.4,0,0.6,0.2,0.6,0.6c0,0.8,0,1.5,0,2.3c0,0.4-0.2,0.6-0.6,0.6
		c-0.7,0-1.5,0-2.2,0c-0.4,0-0.6-0.2-0.6-0.6c0-0.7,0-1.5,0-2.2c0-0.3,0.2-0.6,0.6-0.6C7.8,24.7,8.2,24.6,8.5,24.6z"/>
	<path class="st0" d="M19.2,24.6c0.4,0,0.7,0,1.1,0c0.4,0,0.6,0.2,0.6,0.6c0,0.7,0,1.5,0,2.2c0,0.4-0.2,0.6-0.6,0.6
		c-0.7,0-1.5,0-2.2,0c-0.4,0-0.6-0.2-0.6-0.6c0-0.7,0-1.5,0-2.2c0-0.4,0.2-0.6,0.6-0.6C18.4,24.6,18.8,24.6,19.2,24.6z"/>
	<path class="st0" d="M8.5,17.5c-0.4,0-0.7,0-1.1,0c-0.4,0-0.6-0.2-0.6-0.6c0-0.7,0-1.5,0-2.2C6.8,14.2,7,14,7.4,14
		c0.7,0,1.5,0,2.2,0c0.4,0,0.6,0.2,0.6,0.6c0,0.8,0,1.5,0,2.3c0,0.4-0.2,0.6-0.6,0.6C9.3,17.5,8.9,17.5,8.5,17.5z"/>
	<path class="st0" d="M19.2,17.5c-0.4,0-0.7,0-1.1,0c-0.4,0-0.6-0.2-0.6-0.6c0-0.8,0-1.5,0-2.3c0-0.4,0.2-0.6,0.6-0.6
		c0.8,0,1.5,0,2.3,0c0.4,0,0.6,0.2,0.6,0.5c0,0.8,0,1.6,0,2.3c0,0.4-0.2,0.5-0.6,0.6C19.9,17.5,19.5,17.5,19.2,17.5z"/>
	<path class="st0" d="M26.2,21c0,0.4,0,0.7,0,1.1c0,0.4-0.2,0.6-0.6,0.6c-0.8,0-1.5,0-2.3,0c-0.4,0-0.6-0.2-0.6-0.6
		c0-0.7,0-1.5,0-2.2c0-0.4,0.2-0.6,0.6-0.6c0.7,0,1.5,0,2.2,0c0.4,0,0.6,0.2,0.6,0.6c0,0,0,0,0,0C26.2,20.3,26.2,20.7,26.2,21z"/>
	<path class="st0" d="M12.1,15.7c0-0.4,0-0.7,0-1.1c0-0.4,0.2-0.6,0.6-0.6c0.7,0,1.5,0,2.2,0c0.4,0,0.6,0.2,0.6,0.6
		c0,0.8,0,1.5,0,2.3c0,0.4-0.2,0.6-0.6,0.6c-0.8,0-1.5,0-2.3,0c-0.4,0-0.6-0.2-0.6-0.6C12.1,16.5,12.1,16.1,12.1,15.7z"/>
	<path class="st0" d="M24.5,17.5c-0.4,0-0.7,0-1.1,0c-0.4,0-0.6-0.2-0.6-0.6c0-0.8,0-1.5,0-2.3c0-0.4,0.2-0.6,0.6-0.6
		c0.8,0,1.5,0,2.3,0c0.4,0,0.6,0.2,0.6,0.6c0,0.8,0,1.6,0,2.3c0,0.3-0.2,0.5-0.5,0.5C25.3,17.5,24.9,17.5,24.5,17.5z"/>
	<path class="st0" d="M13.9,24.6c0.4,0,0.7,0,1.1,0c0.4,0,0.6,0.2,0.6,0.6c0,0.7,0,1.5,0,2.2c0,0.4-0.2,0.6-0.6,0.6
		c-0.8,0-1.5,0-2.3,0c-0.4,0-0.6-0.2-0.6-0.6c0-0.8,0-1.5,0-2.3c0-0.4,0.2-0.6,0.6-0.6C13.1,24.6,13.5,24.6,13.9,24.6z"/>
</g>
</svg>
